<svg width="21" height="21" viewBox="0 0 21 21" fill="none" xmlns="http://www.w3.org/2000/svg">
<path d="M14 8.75H15.75" stroke="#8F8F8F" stroke-linecap="round" stroke-linejoin="round"/>
<path d="M14 12.25H15.75" stroke="#8F8F8F" stroke-linecap="round" stroke-linejoin="round"/>
<path d="M5.39874 13.125C5.57912 12.6123 5.91421 12.1681 6.35776 11.854C6.80131 11.5398 7.33145 11.3711 7.87499 11.3711C8.41853 11.3711 8.94867 11.5398 9.39223 11.854C9.83578 12.1681 10.1709 12.6123 10.3512 13.125" stroke="#8F8F8F" stroke-linecap="round" stroke-linejoin="round"/>
<path d="M7.875 11.375C8.8415 11.375 9.625 10.5915 9.625 9.625C9.625 8.6585 8.8415 7.875 7.875 7.875C6.9085 7.875 6.125 8.6585 6.125 9.625C6.125 10.5915 6.9085 11.375 7.875 11.375Z" stroke="#8F8F8F" stroke-linecap="round" stroke-linejoin="round"/>
<path d="M17.5 4.375H3.5C2.5335 4.375 1.75 5.1585 1.75 6.125V14.875C1.75 15.8415 2.5335 16.625 3.5 16.625H17.5C18.4665 16.625 19.25 15.8415 19.25 14.875V6.125C19.25 5.1585 18.4665 4.375 17.5 4.375Z" stroke="#8F8F8F" stroke-linecap="round" stroke-linejoin="round"/>
</svg>
