<svg width="50" height="50" viewBox="0 0 50 50" fill="none" xmlns="http://www.w3.org/2000/svg">
<path d="M28.1875 38.75H34.1875V38.5625L23.875 27.625L23.9375 27.4375H24.5625C26.8125 27.4375 28.6771 26.75 30.1562 25.375C31.6354 24 32.5417 22.3958 32.875 20.5625H35.375V17.625H32.8125C32.6875 17 32.4688 16.4062 32.1562 15.8438C31.8438 15.2812 31.4583 14.7292 31 14.1875H35.375V11.25H14.625V14.8125H24.375C25.4583 14.8125 26.3438 15.0833 27.0312 15.625C27.7188 16.1667 28.1875 16.8333 28.4375 17.625H14.625V20.5625H28.5C28.25 21.3958 27.7708 22.1146 27.0625 22.7188C26.3542 23.3229 25.3958 23.625 24.1875 23.625H17.9375V27.625L28.1875 38.75ZM25 50C21.5417 50 18.2917 49.3438 15.25 48.0312C12.2083 46.7188 9.5625 44.9375 7.3125 42.6875C5.0625 40.4375 3.28125 37.7917 1.96875 34.75C0.65625 31.7083 0 28.4583 0 25C0 21.5417 0.65625 18.2917 1.96875 15.25C3.28125 12.2083 5.0625 9.5625 7.3125 7.3125C9.5625 5.0625 12.2083 3.28125 15.25 1.96875C18.2917 0.65625 21.5417 0 25 0C28.4583 0 31.7083 0.65625 34.75 1.96875C37.7917 3.28125 40.4375 5.0625 42.6875 7.3125C44.9375 9.5625 46.7188 12.2083 48.0312 15.25C49.3438 18.2917 50 21.5417 50 25C50 28.4583 49.3438 31.7083 48.0312 34.75C46.7188 37.7917 44.9375 40.4375 42.6875 42.6875C40.4375 44.9375 37.7917 46.7188 34.75 48.0312C31.7083 49.3438 28.4583 50 25 50ZM25 45C30.5833 45 35.3125 43.0625 39.1875 39.1875C43.0625 35.3125 45 30.5833 45 25C45 19.4167 43.0625 14.6875 39.1875 10.8125C35.3125 6.9375 30.5833 5 25 5C19.4167 5 14.6875 6.9375 10.8125 10.8125C6.9375 14.6875 5 19.4167 5 25C5 30.5833 6.9375 35.3125 10.8125 39.1875C14.6875 43.0625 19.4167 45 25 45Z" fill="#135BEC"/>
</svg>
